<svg width="680" height="600" viewBox="0 0 680 600" xmlns="http://www.w3.org/2000/svg"><polygon points="340.0,253.0 380.7,276.5 380.7,323.5 340.0,347.0 299.3,323.5 299.3,276.5" fill="none" stroke="#d3d1c7" stroke-width="1"/><polygon points="340.0,206.0 421.4,253.0 421.4,347.0 340.0,394.0 258.6,347.0 258.6,253.0" fill="none" stroke="#d3d1c7" stroke-width="1"/><polygon points="340.0,159.0 462.1,229.5 462.1,370.5 340.0,441.0 217.9,370.5 217.9,229.5" fill="none" stroke="#d3d1c7" stroke-width="1"/><polygon points="340.0,112.0 502.8,206.0 502.8,394.0 340.0,488.0 177.2,394.0 177.2,206.0" fill="none" stroke="#d3d1c7" stroke-width="1"/><line x1="340" y1="300" x2="340.0" y2="112.0" stroke="#d3d1c7" stroke-width="1"/><line x1="340" y1="300" x2="502.8" y2="206.0" stroke="#d3d1c7" stroke-width="1"/><line x1="340" y1="300" x2="502.8" y2="394.0" stroke="#d3d1c7" stroke-width="1"/><line x1="340" y1="300" x2="340.0" y2="488.0" stroke="#d3d1c7" stroke-width="1"/><line x1="340" y1="300" x2="177.2" y2="394.0" stroke="#d3d1c7" stroke-width="1"/><line x1="340" y1="300" x2="177.2" y2="206.0" stroke="#d3d1c7" stroke-width="1"/><text x="344" y="296" font-size="10" fill="#888780">0</text><text x="344" y="204" font-size="10" fill="#888780">.5</text><text x="344" y="110" font-size="10" fill="#888780">1</text><polygon points="340.0,213.9 407.9,260.8 489.3,386.2 340.0,394.0 204.4,378.3 319.6,288.2" fill="#D85A30" fill-opacity="0.12" stroke="#D85A30" stroke-width="2" stroke-dasharray="6 4"/><polygon points="340.0,166.9 441.8,241.2 475.6,378.3 340.0,488.0 177.2,394.0 299.3,276.5" fill="#639922" fill-opacity="0.18" stroke="#639922" stroke-width="2.5"/><rect x="336.5" y="210.4" width="7" height="7" fill="#D85A30"/><circle cx="340.0" cy="166.9" r="4.5" fill="#639922"/><rect x="404.4" y="257.3" width="7" height="7" fill="#D85A30"/><circle cx="441.8" cy="241.2" r="4.5" fill="#639922"/><rect x="485.8" y="382.7" width="7" height="7" fill="#D85A30"/><circle cx="475.6" cy="378.3" r="4.5" fill="#639922"/><rect x="336.5" y="390.5" width="7" height="7" fill="#D85A30"/><circle cx="340.0" cy="488.0" r="4.5" fill="#639922"/><rect x="200.9" y="374.8" width="7" height="7" fill="#D85A30"/><circle cx="177.2" cy="394.0" r="4.5" fill="#639922"/><rect x="316.1" y="284.8" width="7" height="7" fill="#D85A30"/><circle cx="299.3" cy="276.5" r="4.5" fill="#639922"/><text x="340.0" y="80.0" font-size="13" font-weight="500" text-anchor="middle" fill="#1f1e1b">Provenance</text><text x="340.0" y="95.0" font-size="11" text-anchor="middle" fill="#5f5e5a">0.46 &#8594; <tspan fill="#3B6D11" font-weight="500">0.71</tspan></text><text x="525.3" y="193.0" font-size="13" font-weight="500" text-anchor="start" fill="#1f1e1b">Uncertainty Quantification</text><text x="525.3" y="208.0" font-size="11" text-anchor="start" fill="#5f5e5a">0.42 &#8594; <tspan fill="#3B6D11" font-weight="500">0.62</tspan></text><text x="525.3" y="407.0" font-size="13" font-weight="500" text-anchor="start" fill="#1f1e1b">Trap handling</text><text x="525.3" y="422.0" font-size="11" text-anchor="start" fill="#5f5e5a">0.92 &#8594; <tspan fill="#3B6D11" font-weight="500">0.83</tspan></text><text x="340.0" y="518.0" font-size="13" font-weight="500" text-anchor="middle" fill="#1f1e1b">Fabrication avoided</text><text x="340.0" y="533.0" font-size="11" text-anchor="middle" fill="#5f5e5a">0.50 &#8594; <tspan fill="#3B6D11" font-weight="500">1.00</tspan></text><text x="154.7" y="407.0" font-size="13" font-weight="500" text-anchor="end" fill="#1f1e1b">Factual accuracy</text><text x="154.7" y="422.0" font-size="11" text-anchor="end" fill="#5f5e5a">0.83 &#8594; <tspan fill="#3B6D11" font-weight="500">1.00</tspan></text><text x="154.7" y="187.0" font-size="13" font-weight="500" text-anchor="end" fill="#1f1e1b">Citations</text><text x="154.7" y="202.0" font-size="11" text-anchor="end" fill="#5f5e5a">0.12 &#8594; <tspan fill="#3B6D11" font-weight="500">0.25</tspan></text></svg>