<svg width="680" height="600" viewBox="0 0 680 600" xmlns="http://www.w3.org/2000/svg"><polygon points="340.0,253.0 380.7,276.5 380.7,323.5 340.0,347.0 299.3,323.5 299.3,276.5" fill="none" stroke="#d3d1c7" stroke-width="1"/><polygon points="340.0,206.0 421.4,253.0 421.4,347.0 340.0,394.0 258.6,347.0 258.6,253.0" fill="none" stroke="#d3d1c7" stroke-width="1"/><polygon points="340.0,159.0 462.1,229.5 462.1,370.5 340.0,441.0 217.9,370.5 217.9,229.5" fill="none" stroke="#d3d1c7" stroke-width="1"/><polygon points="340.0,112.0 502.8,206.0 502.8,394.0 340.0,488.0 177.2,394.0 177.2,206.0" fill="none" stroke="#d3d1c7" stroke-width="1"/><line x1="340" y1="300" x2="340.0" y2="112.0" stroke="#d3d1c7" stroke-width="1"/><line x1="340" y1="300" x2="502.8" y2="206.0" stroke="#d3d1c7" stroke-width="1"/><line x1="340" y1="300" x2="502.8" y2="394.0" stroke="#d3d1c7" stroke-width="1"/><line x1="340" y1="300" x2="340.0" y2="488.0" stroke="#d3d1c7" stroke-width="1"/><line x1="340" y1="300" x2="177.2" y2="394.0" stroke="#d3d1c7" stroke-width="1"/><line x1="340" y1="300" x2="177.2" y2="206.0" stroke="#d3d1c7" stroke-width="1"/><text x="344" y="296" font-size="10" fill="#888780">0</text><text x="344" y="204" font-size="10" fill="#888780">.5</text><text x="344" y="110" font-size="10" fill="#888780">1</text><polygon points="340.0,215.4 410.5,259.3 486.0,384.3 340.0,405.7 204.4,378.3 315.6,285.9" fill="#D85A30" fill-opacity="0.12" stroke="#D85A30" stroke-width="2" stroke-dasharray="6 4"/><polygon points="340.0,159.0 451.2,235.8 474.8,377.8 340.0,488.0 177.2,394.0 283.0,267.1" fill="#639922" fill-opacity="0.18" stroke="#639922" stroke-width="2.5"/><rect x="336.5" y="211.9" width="7" height="7" fill="#D85A30"/><circle cx="340.0" cy="159.0" r="4.5" fill="#639922"/><rect x="407.0" y="255.8" width="7" height="7" fill="#D85A30"/><circle cx="451.2" cy="235.8" r="4.5" fill="#639922"/><rect x="482.5" y="380.8" width="7" height="7" fill="#D85A30"/><circle cx="474.8" cy="377.8" r="4.5" fill="#639922"/><rect x="336.5" y="402.2" width="7" height="7" fill="#D85A30"/><circle cx="340.0" cy="488.0" r="4.5" fill="#639922"/><rect x="200.9" y="374.8" width="7" height="7" fill="#D85A30"/><circle cx="177.2" cy="394.0" r="4.5" fill="#639922"/><rect x="312.1" y="282.4" width="7" height="7" fill="#D85A30"/><circle cx="283.0" cy="267.1" r="4.5" fill="#639922"/><text x="340.0" y="80.0" font-size="13" font-weight="500" text-anchor="middle" fill="#1f1e1b">Provenance</text><text x="340.0" y="95.0" font-size="11" text-anchor="middle" fill="#5f5e5a">0.45 &#8594; <tspan fill="#3B6D11" font-weight="500">0.75</tspan></text><text x="525.3" y="193.0" font-size="13" font-weight="500" text-anchor="start" fill="#1f1e1b">Uncertainty Quantification</text><text x="525.3" y="208.0" font-size="11" text-anchor="start" fill="#5f5e5a">0.43 &#8594; <tspan fill="#3B6D11" font-weight="500">0.68</tspan></text><text x="525.3" y="407.0" font-size="13" font-weight="500" text-anchor="start" fill="#1f1e1b">Trap handling</text><text x="525.3" y="422.0" font-size="11" text-anchor="start" fill="#5f5e5a">0.90 &#8594; <tspan fill="#3B6D11" font-weight="500">0.83</tspan></text><text x="340.0" y="518.0" font-size="13" font-weight="500" text-anchor="middle" fill="#1f1e1b">Fabrication avoided</text><text x="340.0" y="533.0" font-size="11" text-anchor="middle" fill="#5f5e5a">0.56 &#8594; <tspan fill="#3B6D11" font-weight="500">1.00</tspan></text><text x="154.7" y="407.0" font-size="13" font-weight="500" text-anchor="end" fill="#1f1e1b">Factual accuracy</text><text x="154.7" y="422.0" font-size="11" text-anchor="end" fill="#5f5e5a">0.83 &#8594; <tspan fill="#3B6D11" font-weight="500">1.00</tspan></text><text x="154.7" y="187.0" font-size="13" font-weight="500" text-anchor="end" fill="#1f1e1b">Citations</text><text x="154.7" y="202.0" font-size="11" text-anchor="end" fill="#5f5e5a">0.15 &#8594; <tspan fill="#3B6D11" font-weight="500">0.35</tspan></text></svg>